M48
;Layer_Color=9474304
;FILE_FORMAT=2:5
INCH,LZ
;TYPE=PLATED
T1F00S00C0.01000
T2F00S00C0.01500
T4F00S00C0.03346
T5F00S00C0.03504
T6F00S00C0.03543
T7F00S00C0.04016
T8F00S00C0.05000
T10F00S00C0.06181
T11F00S00C0.12598
;TYPE=NON_PLATED
T12F00S00C0.12795
%
T01
X-0314961Y-0334646
X-0295275
X-027559
X-0255906
Y-0295275
X-027559
X-0295275
X-0314961
X-0334646
X-0324803Y-027559
X-0305118
X-0285433
X-027559Y-0255906
X-0255906
X-0295275
X-0314961
X-0305118Y-0314961
X-0285433
X-0324803
X-0246063
X-0226378
X-0216535Y-0295275
X-019685
X-0187008Y-027559
X-0195866Y-0251969
X-0213583
X-023622Y-0255906
X-0226378Y-027559
X-0246063
X-023622Y-0295275
Y-0334646
X-0216535
X-019685
X-0187008Y-0314961
X-015748Y-0334646
X-0137795
X-0108268Y-0314961
X-0096457Y-0308071
X-0119095Y-0292323
X-0122047Y-0271654
X-0135827Y-0262795
X-0139764
X-0144685Y-0252953
X-0172Y-02525
X-0177165Y-0251969
X-0069803Y-0263779
X-0050197Y-0259842
X-00715Y-0287
X-0075Y-02895
X-007185Y-030315
X-0082677
Y-0308071
X-0088583Y-0314961
X-0068898
X-0049213
X-0029528
X-0034449Y-0304134
X-0019685Y-0295275
X-00075Y-0282
X0024213Y-0268898
X002185Y-0266043
X0041Y-0282
X0047Y-0325
X0050492Y-0324016
X0056696Y-0327477
X0061516Y-0325394
X0062008Y-032185
X00585Y-03195
X0047244Y-0332677
Y-0337598
X003937Y-0334646
X-003937
X-0044291Y-0336614
X-0062992Y-0329724
X-0088583Y-0344488
X0074803Y-0332677
X00645Y-03195
X00942Y-03198
X00975Y-03195
X01055Y-03065
X0117Y-03105
X0124803Y-0305315
X0129921Y-0293307
Y-028937
X01306Y-0285
X0126969
X0128Y-02775
X0132
X0143Y-02765
X0147Y-02745
X01485Y-02665
X0144587Y-0266732
X0143Y-0264
X013Y-02615
X0127642Y-0259842
X0127Y-02645
X0123Y-0262
X0131579Y-0254921
X0128466Y-0249966
X011811Y-0250984
X0105315Y-0265748
X00985Y-0267
X0095Y-0278394
X00955Y-0285
X00905Y-02845
X00885Y-02815
X0094Y-02895
X01025Y-0293
X01135Y-02935
X0114Y-0289
X0113Y-02845
Y-02785
X01095
X0113189Y-0273622
X0084449Y-0264
X0075Y-0273
X00835Y-0305
X0090551Y-0343406
X01255Y-03265
X01355Y-03245
X0136Y-03155
X0148272Y-0315812
X0147146Y-030935
X01525Y-03095
X01545Y-0307
X0160433Y-0304134
X0161811Y-0309842
X0168307Y-0307087
X0170276Y-0304134
X0173228Y-0307087
X017815
X0181102Y-0304134
X0185Y-0304
X01865Y-03065
X0189Y-03085
Y-0289
X0192Y-029
X0195Y-0287
X0193Y-0278
X01865Y-0276
X01795Y-02735
X0170276Y-0273622
X01725Y-02705
X0165Y-02675
X0163Y-0284
X0164Y-02885
X0161228Y-0289286
X01688Y-02892
X01805Y-0285
X0183734Y-0287734
X0184055Y-0290551
X0204Y-03025
X02085Y-03035
X02135Y-03045
X0214567Y-0311024
X02095Y-031
X020374Y-0322835
X0202756Y-0338583
X0177Y-03315
X0174
X0171Y-0332
X01675
X0165496Y-0324803
X0158465
X015748Y-0334646
X0155512Y-0339567
X0142717Y-0332677
X01465Y-0325
X01455Y-02875
X0152Y-0292
X01395Y-0293
X01365Y-02938
X0134Y-0296
X0198Y-0264
X0203Y-02645
X02Y-0259
X01955Y-02585
X01925Y-0258
X01975Y-02555
X0195Y-02505
X0206Y-02705
X020908Y-0275
X0221Y-02825
X0222441Y-0290354
X02275Y-02905
X02315Y-0285
X0237Y-0292
X0242178Y-0292271
X0244685Y-0289961
X0242769Y-0288044
X02475Y-02955
X0252Y-0293
X0254921Y-0299213
X0245Y-0306
X0244882Y-0316142
X0246063Y-032185
X0254921Y-0315945
X0263779
X0285433Y-0314961
X0300866Y-0311496
X0305118Y-0314961
X0314961Y-0334646
X0295276
X0275591
X0229331Y-0336614
Y-0322835
X0220472Y-0324803
X02195Y-03035
X0229331Y-0305118
X02335Y-03025
X0245276Y-0272539
X0242Y-0264764
X0241249Y-0253937
X0244587Y-0250984
X0257874Y-0252953
X0258858Y-0270669
X0264764
X0270669Y-0287402
X0295276Y-0295275
X0316929Y-0286417
X0324803Y-027559
X0331693Y-0270669
X0336614Y-0276575
X0344488Y-027559
X0334646Y-0295275
X0336811Y-0307874
X0344488Y-0314961
X0314961Y-0268701
X0314961Y-0255906
X028937Y-0257874
X0287401Y-0266732
X0283071Y-0263189
X0266732Y-0244094
X0262795Y-0241142
X0265747Y-0238189
X0262795Y-0233268
X0258858Y-0235236
X0259842Y-0230314
X0257874Y-0227362
Y-0215551
X0258858Y-0202756
X02585Y-01995
X02625Y-01955
X0255906Y-0177165
X0247047
X0237Y-0177
X02375Y-01885
X0232928Y-0188127
X0232382Y-0190991
Y-0193701
Y-0196411
X0228346Y-0191041
X0229722Y-0188585
X0225394Y-0188976
X0222441Y-0190945
X0219488Y-0188976
X021939Y-0177362
X02225Y-01715
X0225Y-017
X0227362Y-0156496
X0239173
X0248031Y-0156496
X025689
X0267717Y-016437
X0290354Y-0160433
Y-0168307
X0306004Y-0162795
X0305118Y-015748
X0313484Y-0152854
X0313021Y-0138
X03065Y-01383
X0310827Y-0127855
Y-0122835
X0309252Y-0114961
Y-0109941
X02965Y-01114
X0296463Y-011811
Y-0125
X02893Y-01251
X0273819Y-0128347
X0267913Y-0134055
X0263976Y-0135827
X0248228
X0245079Y-0144685
X0224178Y-01435
X0221457Y-0134786
X0226378Y-011811
X0246063
X0263976Y-0115354
X0255906Y-0098425
X02893Y-00977
X02894Y-01044
X0296463Y-0104331
Y-0097441
X0310532Y-0094587
X032166Y-0102553
X0323576Y-0100637
X0325492Y-0098721
X0334646Y-0098425
X0319743Y-0104469
X0320079Y-0130943
X0316594Y-0130998
X0323524Y-0130807
X0334646Y-0137795
X0344488Y-015748
X0334646Y-0177165
X0310335Y-017313
X0305413Y-0182972
X0312106Y-0193012
X0306004Y-0202854
X0290857Y-0199575
X0284449Y-0209646
X0278937Y-0211614
X030315Y-0222441
X0311024Y-0239173
X0336614Y-0220276
X0344488Y-019685
X024498Y-020374
X0245079Y-0207677
X02445Y-01885
X0241Y-019
X02305Y-02165
X0231299Y-0229331
X0223425Y-0229134
X0245374Y-0229331
X02445Y-02385
X0244Y-0243
X0240551Y-0244337
Y-0247047
Y-0249757
X0216295Y-022549
X0214527Y-0223425
X0216295Y-022136
X0216535Y-0216535
X0177165
X0182087Y-0206693
X0187008Y-019685
X0190059Y-019124
X0185039Y-0188976
X0176181Y-0189567
X0168Y-0189776
X01645Y-01895
X016179Y-0188469
X0159449Y-0189961
X0153Y-01905
X015
X0146
X0142626Y-0182874
X0142Y-018
X0139Y-01775
X0135962Y-017599
X01365Y-0185
X0131929Y-0191929
X0127953Y-0191929
X0126968Y-019685
X0126969Y-0202756
X01315Y-02025
X0122047Y-0194881
X01275Y-0181
X0153543Y-0176181
X01585Y-01775
X0165Y-01765
X0174Y-0176
X0178635Y-0173917
X0181345
X0184055
X0186765
X0189475
X0189961Y-0177165
X0187992Y-0169697
X0213583Y-0174213
X0214566Y-0177165
X021821Y-0174709
X021752Y-015748
X0201584Y-013189
X0155Y-0142
X01545Y-0145
X0157Y-01465
X01545Y-01495
X0154535Y-0153649
X0158472Y-015483
X0158366Y-0150689
X0162697Y-0155413
X0138779Y-0152559
X01095Y-0164
X0103Y-0172
X0072Y-01685
Y-01655
X0075Y-016
X00875Y-014
X0088583Y-0132284
X0090158Y-0127855
X0089157Y-0122887
X0088878Y-0120177
X0091043Y-0117618
X0088583Y-0114961
X00905Y-01125
X0088878Y-0104823
X0089862Y-0094587
X0075Y-0097441
X0069193
Y-0104331
X0075
Y-0111221
X0069193
Y-011811
X0075
X00735Y-0125
X00675
X0087007Y-0125037
X0104042Y-0132596
X0109Y-01345
X0101Y-01375
X0098Y-01415
X0101Y-01085
X0099803Y-0105709
X0102663Y-0103942
X010699Y-009685
X0110435Y-0099565
X0137795Y-0098425
X0147638Y-011811
X0127953
X0128648Y-021753
X0125006Y-0219893
X0123286Y-0222005
X01165Y-02235
X01115Y-02205
X0108Y-02175
X0084252Y-0217028
X00845Y-02225
X0076772Y-0208661
X0105Y-0242
X0125Y-0240157
X0125984Y-0235236
X0129Y-02355
X0129921Y-0241141
X013078Y-02455
X0125Y-0246062
X0126968Y-0230314
X0132052Y-0230448
X0132388Y-0219893
X0145669Y-0218898
X0142913Y-0215748
X01435Y-02095
X014789Y-021161
X01595Y-02295
X0167323Y-0231299
X0144685Y-0242126
X01465Y-0245
X019Y-02455
X0041Y-02155
X00185Y-0221
X00025Y-02215
X-000315Y-022441
X-0011811Y-0212992
X-0015157Y-0210039
X-0018701Y-0230315
X-0049213Y-023622
X-0064Y-02315
X-0066929Y-0248031
X-00725Y-02105
X-007185Y-0199803
X-0076772Y-0202756
X-0086614Y-0195614
X-00925Y-0196
X-0090551Y-0208661
X-00925Y-02115
X-00895Y-02175
X-00825Y-0219
X-0051243Y-0212741
X-0051Y-021
X-0049311Y-0201969
X-0044685Y-0198721
X-004Y-01965
X-00355Y-0196
X-0024Y-01935
X-0003937Y-0195866
X0003543Y-0195187
X0006693Y-0197638
X001Y-01945
X00155
X00185
X00215Y-0194
X00245Y-01935
X0028688Y-0180315
X0031398
X0034108
X0036516Y-018248
X0026Y-0171
X00235Y-0157
X0021Y-01595
X00185Y-01575
X00165Y-0163
X00135Y-01475
X0026Y-01485
X0029
X00315Y-0147
X0034Y-0145
X00365Y-0142
X0043Y-0136
X0047Y-01335
X0051165Y-0136165
X005315Y-0128346
X0043307Y-0115354
X003937Y-0098425
X0027559Y-0135827
X0000787Y-0134786
X-0019085Y-013189
X-00268Y-01481
X-00295Y-01455
X-00291Y-01583
X-00323Y-01589
X-003572Y-015868
X-00393Y-01572
X-0041831Y-0159
X-00442Y-01573
X-0047Y-01475
X-0048013Y-0169471
X-00525Y-01685
Y-01655
Y-01775
X-0062008Y-0174213
X-0065Y-01635
X-0065945Y-0152559
X-0079724
X-0086614Y-0148622
X-00895Y-0157
X-00915Y-0159
X-00815Y-0175197
X-0081693Y-0180118
X-0075787Y-0183071
X-0087Y-01845
X-0061567Y-0195334
X-0059055Y-0198819
X-0041634Y-021309
X-0038189Y-0213287
X-0032Y-01705
X-0029Y-0171
X-0019Y-01705
X-00135Y-01715
X-00055Y-01775
X00095
X-00035Y-0163
X-0004921Y-0152559
X-0009843Y-015748
X-00256Y-01576
X-0049213Y-011811
X0045404Y-0152559
X003937Y-0159449
X0050197Y-0170276
X0055118
X0060039Y-0152559
X0010371Y-0204931
X00035Y-0202
X-0104134Y-0203051
X-0104Y-0197
X-0103346Y-0209645
X-0111Y-0211
X-0122047Y-0207677
X-0127Y-02035
X-0125Y-0190945
X-0122441Y-0181299
X-0117Y-0186
X-0112205Y-0183071
X-0107Y-0186
X-0097Y-01855
X-00945Y-0158
X-0096Y-01485
X-0099122Y-0148622
X-0102Y-01485
X-0105Y-01425
X-01075Y-014
X-0111221Y-0147638
X-0124Y-01365
X-012583Y-0130469
X-0123721Y-0127953
X-0120768Y-013002
X-0134055Y-0127855
Y-0122835
X-013563Y-013189
X-0149114Y-0125
X-0155118
Y-011811
X-0149114
Y-0111221
X-0155118
Y-0104331
X-0149114
Y-0097441
X-0155118
X-013435Y-0094587
X-013563Y-0109941
X-0116673Y-0097146
X-0113963
X-0111253
X-0108543
X-01005Y-01
X-0180905Y-0115354
Y-0135827
X-0176969Y-0134055
X-0171063Y-0128347
X-01815Y-0149
X-01855Y-0152
X-01865Y-0146
X-01925Y-0143
X-0198Y-01395
X-0196654Y-0135827
X-0194Y-01585
X-0198Y-0161
X-0189173Y-0165354
X-0182087
X-0182Y-01715
X-018Y-01805
X-0185
X-0175197Y-0180118
X-0170276
X-0165354
X-0160433
X-0155512
X-015748Y-0177165
X-0150591Y-0180118
X-0145669
X-0139Y-01835
X-0139764Y-0189961
X-0137795Y-0177165
X-0168307Y-017126
Y-0165354
X-019Y-0155
X-020374Y-0177165
X-023622Y-0177165
X-0246063Y-019685
X-023622Y-0216535
X-0216535Y-0216535
X-019685Y-0216535
X-0184055Y-0214567
X-0175197Y-021063
Y-0206693
X-0172244Y-0208661
X-0172244Y-020374
X-0173228Y-0198819
X-017815Y-0194882
X-0180709Y-019252
X-0183071Y-0194882
X-0160433Y-0192913
X-0158465Y-0201772
X-016437
Y-0207677
X-0158465
X-0149606
X-0146653Y-0205709
X-01475Y-02105
X-0153543Y-0212598
Y-0226378
X-0170276Y-022441
X-017126Y-0214567
X-0135827Y-0220472
X-011811Y-0227362
X-0125Y-0241142
X-01405Y-02415
X-0138Y-0248
X-0098283Y-0217717
X-0246063Y-023622
X-0243298Y-013189
X-0223425Y-0134786
X-0255906Y-0137795
X-027559
X-0295275
X-0314961
X-0334646
X-0324803Y-015748
X-0305118
X-0285433
X-0265748
X-0255906Y-0177165
X-027559
X-0295275
X-0314961
X-0334646
X-0324803Y-019685
X-0305118
X-0285433
X-0262795Y-0200787
X-0255906Y-0216535
X-0262795Y-022441
X-0265748Y-023622
X-0285433
X-0305118
X-0295275Y-0216535
X-027559
X-0314961
X-0334646
Y-0098425
X-0314961
X-0305118Y-011811
X-027559Y-0098425
X-0285433Y-007874
X-0305118
X-0324803
X-0314961Y-0059055
X-0295275
X-0305118Y-003937
X-0324803
X-0314961Y-0019685
X-0295275
X-0285433Y0
X-0305118
X-0314961Y0019685
X-0305118Y003937
X-0324803
X-0314961Y0059055
X-0295275
X-0334646
X-027559Y0019685
X-0334646Y-0059055
X-0243298Y-0074803
X-0223425Y-00777
X-0216535Y-0059055
X-019685
X-0180905Y-0058268
Y-007874
X-0176969Y-0076969
X-0176969Y-0084646
X-018248Y-0085827
X-0195079
X-0196654Y-007874
X-0167323Y-007874
X-0171063Y-007126
X-0155118Y-0067914
X-0149114
Y-0061024
X-0155118
Y-0054134
X-0149114
Y-0047244
X-0155118
Y-0040354
X-0147638Y-003937
X-013435Y-00375
X-01342Y-00301
X-013563Y-0017717
X-0134055Y-0013681
Y-0008661
X-013563Y-0000787
Y0004232
X-0149114Y0002953
X-0155118
Y-0003937
X-0149114
Y-0010827
X-0155118
X-0171063Y-0014173
X-0176969Y-0019882
X-0180905Y-0021654
X-018248Y-002874
X-0176969Y-0027559
X-0195079Y-002874
X-0196654Y-0021654
X-0187008Y-003937
X-0180905Y-0001181
X-018248Y0028346
X-0176969Y0029528
X-0176969Y0037204
X-0180905Y0035433
X-0196654
X-0195079Y0028346
X-0223425Y0036474
X-0243298Y003937
Y-0017717
X-0223425Y-0020613
X-0155118Y0009843
X-0149114
Y0016733
X-0155118
X-013435Y0019586
X-0133766Y002382
X-0133464Y0026575
X-013563Y003937
X-0134055Y0043405
Y0048425
X-013563Y0056299
Y0061319
X-0149114Y0060039
X-0155118
Y005315
X-0149114
Y004626
X-0155118
X-0171063Y0042913
X-0180905Y0055905
X-011939Y0054429
X-0122146Y0051279
X-0124508Y0047047
X-0127953Y003937
X-0098425Y0059055
Y0019685
X-0108543Y0001083
X-0111253
X-0113963
X-0116673
X-011939Y-0002756
X-0122146Y-0005217
X-0124508Y-0010827
X-0098425Y-0019685
Y-0059055
X-0108543Y-0053347
X-0111253
X-0113963
X-0116673
X-0119383
X-0122146Y-0062598
X-0124409Y-0067421
X-0134055Y-0065748
Y-0070768
X-013563Y-0074803
X-0127953Y-007874
X-01339Y-00876
X-01335Y-00908
X-013563Y-0057874
Y-0052855
X-0088583Y-003937
X-007874Y-0019685
X-0059055
X-0049213Y-003937
X-0059055Y-0059055
X-007874
X-0068898Y-007874
X-0088583
X-0029528
X-0019085Y-0074803
X0000787Y-00777
X0027559Y-007874
X0029134Y-0085827
X0041732
X0047244Y-0084646
X0047244Y-0076969
X0049213Y-007874
X0043307Y-007874
X005315Y-007126
X0043307Y-0058268
X0019685Y-0059055
X0029134Y-002874
X0027559Y-0021654
X0043307
X0047244Y-0019882
X0047244Y-0027559
X0041732Y-002874
X005315Y-0014173
X0043307Y-0001181
X003937Y0019685
X0041732Y0028346
X0047244Y0029528
X0047244Y0037204
X0043307Y0035433
X0027559
X0029134Y0028346
X0000787Y0036474
X-0019085Y003937
Y-0017717
X0000787Y-0020613
X-0068898Y0
X-0088583
X-007874Y0019685
X-0088583Y003937
X-007874Y0059055
X-0059055
X0043307Y0055905
X005315Y0042913
X0069193Y004626
X0075
Y005315
X0069193
Y0060039
X0075
X0088583Y0061319
Y0056299
X0090158Y0043405
X0088583Y0038976
X0089173Y002372
X0089862Y0019587
X0088583Y0004232
Y-0000787
X0090158Y-0013681
X0088583Y-001811
X0090748Y-0030512
X0089173Y-0033366
X0089862Y-00375
X0088583Y-0052855
Y-0057874
X0090158Y-0070768
X0088583Y-0075197
X0090748Y-0087599
X0088Y-00915
X0098999Y-0067536
X0100915Y-006562
X0102831Y-0063704
X0101876Y-0051667
X0103792Y-0049751
X0105709Y-0047835
X009996Y-0053583
X011811Y-0059055
X0137795
X015748
X0167323Y-003937
X0187008
X0201584Y-0017717
X015748Y-0019685
X0137795
X011811
X0100571Y-0009075
X0098654Y-0010991
X0102487Y-0007159
X010227Y0005715
X0104186Y0007631
X0106102Y0009547
X0100354Y0003799
X0075Y0002953
X0069193
Y-0003937
X0075
Y-0010827
X0069193
Y0009843
X0075
Y0016733
X0069193
X011811Y0019685
X0137795
X0147638Y003937
X0127953
X0137795Y0059055
X015748
X011811
X0100846Y0061771
X0101896Y0049534
X009998Y0047618
X0098064Y0045702
X0127953Y0
X0147638
X0127953Y-003937
Y-007874
X0147638
X0201584Y-0074803
Y003937
X0075Y-0040354
X0069193
Y-0047244
X0075
Y-0054134
X0069193
Y-0061024
X0075
Y-0067914
X0069193
X0221457Y-00777
X0248228Y-007874
X0249803Y-0085827
X0262402
X0267913Y-0084646
X0267913Y-0076969
X0263976Y-007874
X0273819Y-007126
X0263976Y-0058268
X0262402Y-002874
X0267913Y-0027559
X0267913Y-0019882
X0263976Y-0021654
X0248228
X0249803Y-002874
X0246063Y0
X0263976Y-0001181
X0273819Y-0014173
X0289843Y-00109
X0296063Y-0010827
Y-0003937
X0289854Y-0004
X0289864Y00029
X0296063Y0002953
Y0009843
X02897Y00098
X0296063Y0016733
X0310532Y0019586
X03116Y0023273
X0311418Y0026575
X0309252Y003937
X0310827Y0043405
Y0048425
X0309252Y0056299
Y0061319
X02956Y00591
Y00531
X0289858Y005315
X02898Y00599
X0289858Y004626
X02956Y00453
X0273819Y0042913
X0267913Y0037204
X0263976Y0035433
X0262402Y0028346
X0267913Y0029528
X0249803Y0028346
X0248228Y0035433
X0255906Y0019685
X0263976Y0055905
X0221457Y0036474
X0226378Y0
X0221457Y-0020613
X0289798Y-00404
X0296063Y-0040354
Y-0047244
Y-0054134
Y-0061024
X02967Y-00682
X0310827Y-0070768
X0309252Y-0074803
X0311418Y-0087599
X03116Y-00909
X0321167Y-0068399
X0323084Y-0066483
X0325Y-0064567
X0324219Y-0050486
X0326135Y-004857
X0328051Y-0046654
X0322302Y-0052402
X0309252Y-0052855
Y-0057874
X0310532Y-00375
X03116Y-0033813
X0311418Y-0030512
X0313182Y-0018996
X0315892
X0319488Y-0019783
X0309252Y-0017717
X0310827Y-0013681
X0309153Y-0011122
X0310827Y-0008661
X0309252Y-0000787
Y0004232
X0320276Y0012598
X0322638Y0014961
X0324327Y0017127
X0325984Y0020177
X0324091Y0050174
X0322175Y0048258
X0320259Y0046341
X0324945Y0061658
X0334646Y0059055
X0344488Y003937
Y-003937
X0334646Y-0059055
X0344488Y-007874
Y007874
X0330694Y0067406
X0328778Y006549
X0326861Y0063574
X0310532Y0076673
X03116Y008036
X0311418Y0083661
X0309252Y0096457
X0310827Y0100492
X0314961Y0096555
X0295276Y0098425
X0295275Y0103346
X0290158Y0103346
Y0110236
X0295275Y0110236
Y0117126
X0290158Y0117126
Y0124016
X0295275Y0124015
Y0130905
X0290158Y0130906
X0310532Y013376
X03116Y0137446
X0311418Y0140748
X0309252Y0153543
X0310827Y0157751
X0308661Y0160138
X0310827Y0162598
X0309252Y0170472
Y0175492
X0295275Y0174212
X0290158Y0174212
Y0167323
X0295275Y0167323
Y0160433
X0290158Y0160433
X0273819Y0157087
X0267913Y0151377
X0263976Y0149606
X0262402Y014252
X0267913Y0143701
X0249803Y014252
X0248228Y0149606
X0236221Y0137795
X0221457Y0150647
Y0207733
X0248228Y0206693
X0249803Y0199606
X0262402
X0267913Y0200787
X0267913Y0208464
X0263976Y0206693
X0273819Y0214173
X0290158Y0217519
X0295275Y0217519
X0308723Y0217654
X0310827Y0214665
X0309054Y0209645
X0311418Y0197834
X03116Y0194533
X031063Y0190945
X0295275Y0187992
X0290158Y0187992
Y0181102
X0295275Y0181102
X0327171Y0179435
X0329088Y0181351
X0331004Y0183268
X0334646Y0177165
X0325255Y0177519
X0323524Y0163779
X0319Y01645
X0344488Y015748
X0334646Y0137795
X0333661Y0133957
X0330807Y0130709
X0329469Y0127027
X0325295Y0121949
X0321815Y0115951
X0321654Y0112205
X0309252Y0113386
Y0118405
X0344488Y011811
Y0196851
X0334646Y0216535
X0324022Y0218406
X0263976Y0170079
Y0112992
Y009252
X0267913Y0094291
X0267913Y0086614
X0262402Y0085433
X0249803
X0248228Y009252
X0221457Y009356
X0273819Y01
X0289858Y0073819
X0295275Y0073819
Y0066929
X0289858Y0066929
X0201584Y0096457
X0196851Y0098425
X0167323Y007874
X0127953
X0108268
X0106595Y006752
X0104678Y0065603
X0102762Y0063687
X0089862Y0076673
X0089173Y0080807
X0088583Y0096063
X0090158Y0100492
X0088583Y0113386
X0090945Y0115695
X0088583Y0118405
X0091Y01265
X0088976Y0128642
X0089862Y013376
X0089173Y0137894
X0090748Y0140748
X0088583Y0153149
X0090158Y0157579
X0099022Y0159947
X0100938Y0161863
X0102854Y0163779
X0104586Y0177519
X0106502Y0179435
X0108418Y0181351
X0110335Y0183268
X011811Y0177165
X0137795
X015748
X0147638Y0196851
X0127953
X0137795Y0216535
X011811
X0103353Y0218406
X0100643
X0097933
X0088484Y0217224
X0090158Y0214665
X0088583Y0210236
X0090748Y0197834
X0089173Y019498
X0089862Y0190846
X0088583Y0175492
Y0170473
X0075Y0167323
X0069193
Y0174212
X0075
Y0181102
X0069193
Y0187992
X0075
X0068898Y0196851
X0069193Y0217519
X0075
Y0160433
X0069193
X0068898Y015748
X0069193Y0130906
X0075
Y0124016
X0069193
Y0117126
X0075
Y0110236
X0069193
Y0103346
X0075
Y0073819
X0069193
Y0066929
X0075
X0101Y01135
X0101476Y011646
X0104921Y011752
X0104232Y0122343
X0107099Y0123721
X010975Y0127067
X0112345Y0128651
X011811Y0137795
X0137795
X0147638Y011811
X0127953
X0137795Y0098425
X0127953Y015748
X0201584Y0153543
Y021063
X0187008Y0196851
X0047244Y0200787
X0041732Y0199606
X0043307Y0206693
X0047244Y0208464
X005315Y0214173
X0027559Y0206693
X0029134Y0199606
X0009843Y0196851
X0000787Y0207733
X-0019085Y021063
X-0029528Y0196851
Y015748
X-0019085Y0153543
X0000787Y0150647
X0Y0137795
X0029134Y014252
X0027559Y0149606
X0043307
X0047244Y0151378
X0047244Y0143701
X0041732Y014252
X005315Y0157087
X0043307Y0170079
Y0112992
Y009252
X0047244Y0094291
X0047244Y0086614
X0041732Y0085433
X0029134
X0027559Y009252
X0000787Y009356
X-0019085Y0096457
X-0029528Y007874
X0009843
X005315Y01
X-007874Y0098425
X-0068898Y011811
X-0088583
X-007874Y0137795
X-0088583Y015748
X-007874Y0177165
X-0059055
X-0088583Y0196851
X-007874Y0216535
X-0088583Y007874
X-0108268
X-0108543Y0063189
X-0111253
X-0113963
X-0116673
X-013435Y0076673
X-0133495Y008058
X-0133464Y0083661
X-013563Y0096457
X-0134055Y0100492
Y0105512
X-013563Y0113386
Y0118405
X-0122244Y0118996
X-0120079Y0120669
X-0117362Y0122146
X-0114652
X-0111942
X-0109232
X-0123327Y0115059
X-0149114Y0117126
X-0155118
Y0110236
X-0149114
Y0103346
X-0155118
X-0171063Y01
X-0176969Y0094291
X-0180905Y009252
X-018248Y0085433
X-0176969Y0086614
X-0195079Y0085433
X-0196654Y009252
X-0206693Y007874
X-0223425Y009356
X-0243298Y0096457
Y0153543
X-0223425Y0150647
X-0196654Y0149606
X-0195079Y014252
X-019685Y0137795
X-018248Y014252
X-0176969Y0143701
X-0176969Y0151377
X-0180905Y0149606
X-0171063Y0157087
X-0155118Y0160433
X-0149114
X-0147638Y015748
X-0149114Y0167323
X-0155118
Y0174212
X-0149114
Y0181102
X-0155118
Y0187992
X-0149114
X-013435Y0190846
X-0134055Y0194685
X-0133464Y0197834
X-0127953Y0196851
X-0135827Y021063
X-0134252Y0214665
X-0124114Y02175
X-0149311Y0217519
X-0155315
X-017126Y0214173
X-0177165Y0208464
X-0181102Y0206693
X-018248Y0199606
X-0176969Y0200787
X-0195079Y0199606
X-019685Y0206693
X-0206693Y0196851
X-0226378
X-0223622Y0207733
X-0243495Y021063
X-0180905Y0170079
X-013563Y0170472
Y0175492
X-0134055Y0162598
Y0157579
X-013563Y0153543
X-0133464Y0140748
X-0133957Y01375
X-013435Y013376
X-0149114Y0130906
X-0155118
Y0124016
X-0149114
X-015748Y0137795
X-0180905Y0112992
X-0155118Y0073819
X-0149114
Y0066929
X-0155118
X-0125787Y016063
X-0122835Y0166142
X-0120072Y0172047
X-0117362
X-0114652
X-0111942
X-0109232
X-0098425Y0177165
Y0216535
Y0137795
X-0255906
X-0285433Y011811
X-0305118
X-0324803
X-0314961Y0137795
X-0334646
X-0324803Y015748
X-0305118
X-0295275Y0177165
X-0314961
X-0334646
X-0324803Y0196851
X-0305118
X-0314961Y0216535
X-0334646
X-027559
X-0255906
X-0314961Y0098425
X-0305118Y007874
X-0324803
Y0236221
X-0305118
X-0285433
X-0295275Y0255906
X-0314961
X-0334646
X-0324803Y0275591
X-0305118
X-0295275Y0295276
X-0314961
X-0334646
X-0305118Y0314961
X-0285433
X-0265748
X-0255906Y0334646
X-027559
X-0314961
X-0255906Y0255906
X-0243495Y0267717
X-0223622Y026482
X-019685Y0263779
X-0195276Y0256693
X-0182677
X-0177165Y0257874
X-0177165Y0265551
X-0181102Y0263779
X-017126Y027126
X-0155315Y0274606
X-0149311
Y0281496
X-0155315
Y0288386
X-0149311
Y0295276
X-0155315
Y0302166
X-0149311
X-0135433Y0299901
X-0132973Y0297342
X-0135532Y0294783
X-0135827Y0289665
Y0284646
X-0133464Y0286955
X-0133366Y0281988
X-0135532Y0279429
X-0134252Y0276772
X-0135925Y0274311
X-0134252Y0271752
X-0135827Y0267717
X-0133661Y0254921
X-0133963Y0252079
X-0134547Y0247933
X-0135433Y0242815
X-0132973Y0240256
X-0135532Y0237697
X-0135827Y0232579
Y0227559
X-0133464Y0229868
X-0133366Y0224901
X-0135532Y0222342
X-0134252Y0219685
X-0149311Y0224409
X-0155315
Y0231299
X-0149311
Y0238189
X-0155315
Y0245079
X-0149311
X-015748Y0255906
X-0181102Y0284252
X-0182677Y0313779
X-0187008Y0314961
X-0195276Y0313779
X-0206693Y0314961
X-019685Y0334646
X-0177165
X-015748
X-0137795
X-011811
X-0098425
Y0295276
X-011811
X-0134547Y0305019
X-0133661Y0309055
X-0133661Y0312008
X-0127953Y0314961
X-0177165Y0314961
X-0216535Y0334646
X-023622
X-0246063Y0314961
X-0181102Y0227165
X-0108268Y0236221
X-0098425Y0255906
X-0108268Y0275591
X-0088583
X-007874Y0295276
X-0059055
X-0049213Y0314961
X-0029528
X-003937Y0334646
X-007874
X-0068898Y0314961
X-0088583
X-007874Y0255906
X-0059055
X-003937
X-0049213Y0275591
X-0019085Y0267717
X0000787Y026482
X0027559Y0263779
X0029134Y0256693
X0041732
X0047244Y0257874
X0047244Y0265551
X0043307Y0263779
X005315Y027126
X0043307Y0284252
X0041732Y0313779
X0047244Y0314961
X0029134Y0313779
X0009843Y0314961
X003937Y0334646
X0059055
X0043307Y0227165
X-0068898Y0236221
X-0088583
X0069193Y0238189
X0075
Y0245079
X0069193
Y0231299
X0075
Y022441
X0069193
X0088878Y0222342
X0090158Y0219685
X0088583Y0227559
Y0232579
X0100944Y0232735
X010286Y0234652
X0104777Y0236568
X0106693Y0238484
X0127953Y0236221
X0147638
X015748Y0255906
X0177165
X0196851
X0201584Y0267717
X0187008Y0314961
X0196851Y0334646
X0216535
X0177165
X0137795
X011811
X0098425
X007874
X0068898Y0314961
X0069193Y0302166
X0075
Y0295276
X0069193
Y0288386
X0075
Y0281496
X0069193
Y0274606
X0075
X0088484Y0274311
X0090158Y0271752
X0088583Y0267323
X0088878Y0279429
X0091043Y0281988
X0090945Y0286955
X0088583Y0284646
Y0289665
X0088878Y0294783
X0091437Y0297342
X0088976Y0299901
X0089862Y0305019
X0089173Y0309154
X011811Y0295276
X0137795
X015748
X0147638Y0314961
X0127953
Y0275591
X0108268
X011811Y0255906
X0137795
X0089173Y0252067
X0089862Y0247933
X0221457Y026482
X0236221Y0255906
X0249803Y0256693
X0248228Y0263779
X0263976
X0267913Y0265551
X0267913Y0257874
X0262402Y0256693
X0273819Y027126
X0290158Y0274606
X0295275Y0274606
X0296063Y0281496
X0290158
Y0288386
X0296063
Y0295276
X0290158
Y0302166
X0296063
X030374Y0309055
X0311418Y0312008
X0310532Y0305019
X0309646Y0299901
X0312106Y0297342
X0309547Y0294783
X0309252Y0289665
Y0284646
X0311614Y0286955
X0311712Y0281988
X0309547Y0279429
X0310827Y0276772
X0309153Y0274311
X0310827Y0271752
X0309252Y0267717
X0311418Y0254921
X03116Y025162
X0310532Y0247933
X0309252Y0232579
Y0227559
X031063Y0219685
X0318Y0223
X0321613Y0232735
X032353Y0234652
X0325446Y0236568
X0327362Y0238484
X0344488Y0236221
X0334646Y0255906
X0344488Y0275591
X0334646Y0295276
X0314961Y0334646
X0295276
X0275591
X0255906
X0236221
X0226378Y0314961
X0249803Y0313779
X0262402
X0267913Y0314961
X0263976Y0284252
Y0227165
X0290158Y0224409
X0295275Y0224409
Y0231299
X0290158Y0231299
Y0238189
X0295275Y0238189
Y0245078
X0290158Y0245079
T02
X-0265748Y-0330709
X-0259842
X-0253937
Y-0267717
X-0259842
X-0265748
X-0214567
X-0208661
X-0202756
Y-0330709
X-0208661
X-0214567
X-0166339Y-0332677
X-0142717
X-0134843Y-0313976
X-0112209
X-0112205Y-0310039
X-0111811Y-0305709
X-0098425Y-030315
Y-0281496
X-0105315
X-0104331Y-0259842
X-0112205
X-0088583
X-0064961Y-0273622
X-004626Y-0279528
X-0045276Y-030315
X-0064961Y-0305118
X-0007874Y-0297244
X0003937
X0014764Y-0297508
X-0054134Y-0250984
X0226575Y-0135827
X0242323
X0234449Y-0118898
Y-0098032
X0248228Y-0097244
X0272244Y-0099213
X0273425Y-0103136
X0273819Y-0109056
X0275689Y-01125
X0273425Y-0118898
X0274197Y-0123622
X0275591Y-0132874
X0189173Y-0131102
X0169882
X005315Y-013189
X0053527Y-0123622
X0052756Y-0118898
X005502Y-01125
X005315Y-0109056
X0052756Y-0103136
X0051575Y-0099213
X0027559Y-0097244
X001378Y-0098032
Y-0118898
X0005906Y-0135827
X0021654
X-0031496Y-0131102
X-0050787
X-0056102Y-0202756
X-0062008
X-0067913Y-0202755
X-0044291Y-0236221
X-0038386
X-0054134Y-0247047
X-0088583Y-0241142
X0052165Y-0213583
X0058071
Y-0189961
X0052165
X-0104331Y-0241142
X-0112205
X-011811
X-01709Y-0132487
X-0170685Y-0123622
X-0171457Y-0118898
X-0169193Y-01125
X-0171063Y-0109056
X-0171457Y-0103136
X-0172638Y-0099213
X-0196654Y-0097244
X-0210433Y-0098032
Y-0118898
X-0218307Y-0135827
X-0202559
X-0255709Y-0131102
X-0275
Y-0074016
X-0255709
Y-0016929
X-0275
Y0040157
X-0255709
X-0218307Y0035433
X-0202559
X-0202067Y0029823
X-0196654Y0016929
X-0210433Y0016142
Y-0004724
X-0218307Y-0021654
X-0202559
X-0202067Y-0027264
X-0196654Y-0040157
X-0210433Y-0040945
Y-0061811
X-0218307Y-007874
X-0202559
X-0202067Y-008435
X-01709Y-00754
X-0170685Y-0066535
X-0171457Y-0061811
X-0169193Y-0055414
X-0171063Y-0051969
X-0171457Y-0046049
X-0172638Y-0042126
X-01709Y-0018313
X-0170685Y-0009449
X-0171457Y-0004724
X-0169193Y0001673
X-0171063Y0005117
X-0171457Y0011038
X-0172638Y0014961
X-01709Y0038773
X-0170685Y0047638
X-0171457Y0052362
X-0169193Y005876
X-0171063Y0062204
X-0210433Y0052362
X-0050787Y0040157
X-0031496
X0005906Y0035433
X0021654
X0022146Y0029823
X0027559Y0016929
X001378Y0016142
Y-0004724
X0005906Y-0021654
X0021654
X0022146Y-0027264
X0027559Y-0040157
X001378Y-0040945
Y-0061811
X0005906Y-007874
X0021654
X0022146Y-008435
X005315Y-0074803
X0053527Y-0066535
X0052756Y-0061811
X005502Y-0055414
X005315Y-0051969
X0052756Y-0046049
X0051575Y-0042126
X005315Y-0017716
X0053527Y-0009449
X0052756Y-0004724
X005502Y0001673
X005315Y0005118
X0052756Y0011038
X0051575Y0014961
X005315Y003937
X0053527Y0047638
X0052756Y0052362
X005502Y005876
X005315Y0062204
X001378Y0052362
X-0031496Y-0016929
X-0050787
Y-0074016
X-0031496
X0169882Y-0074016
X0189173
Y-0016929
X0169882
Y0040157
X0189173
X0226575Y0035433
X0242323
X0242815Y0029823
X0248228Y0016929
X0234449Y0016142
Y-0004724
X0226575Y-0021654
X0242323
X0242815Y-0027264
X0248228Y-0040157
X0234449Y-0040945
Y-0061811
X0226575Y-007874
X0242323
X0242815Y-008435
X0275591Y-0075787
X0274197Y-0066535
X0273425Y-0061811
X0275689Y-0055414
X0273819Y-0051969
X0273425Y-0046049
X0272244Y-0042126
X0275591Y-0018701
X0274197Y-0009449
X0273425Y-0004724
X0275689Y0001673
X0273819Y0005117
X0273425Y0011038
X0272244Y0014961
X0275591Y0038386
X0274197Y0047638
X0273425Y0052362
X0275689Y005876
X0273819Y0062204
X0234449Y0052362
Y0073228
X0248228Y0074016
X0242815Y008691
X0242323Y009252
X0226575
X0234449Y0109449
Y0130315
X0248228Y0131102
X0242815Y0143996
X0242323Y0149606
X0226575
X0234449Y0166535
Y0187402
X0248228Y0188189
X0242815Y0201083
X0242323Y0206693
X0226575
X027559Y0209646
X0274197Y0218898
X0272244Y0186221
X0273425Y0182297
X0273819Y0176377
X0275689Y0172933
X0273425Y0166535
X0274197Y0161811
X027559Y0152559
X0272244Y0129134
X0273425Y0125211
X0273819Y0119291
X0275689Y0115846
X0273425Y0109449
X0274197Y0104724
X027559Y0095472
X0272244Y0072047
X0273425Y0068124
X0189173Y0097244
X0169882
Y0154331
X0189173
Y0211417
X0169882
X005315Y021063
X0053527Y0218898
X0051575Y0186221
X0052756Y0182297
X005315Y0176377
X005502Y0172933
X0052756Y0166535
X0053527Y0161811
X005315Y0153543
X0051575Y0129134
X0052756Y0125211
X005315Y0119291
X005502Y0115846
X0052756Y0109449
X0053527Y0104724
X005315Y0096457
X0051575Y0072047
X0052756Y0068124
X0027559Y0074016
X001378Y0073228
X0022146Y008691
X0021654Y009252
X0005906
X001378Y0109449
Y0130315
X0027559Y0131102
X0022146Y0143996
X0021654Y0149606
X0005906
X001378Y0166535
Y0187402
X0027559Y0188189
X0022146Y0201083
X0021654Y0206693
X0005906
X-0031496Y0211417
X-0050787
Y0154331
X-0031496
Y0097244
X-0050787
X-01709Y009586
X-0170685Y0104724
X-0171457Y0109449
X-0169193Y0115846
X-0171063Y0119291
X-0171457Y0125211
X-0172638Y0129134
X-0196654Y0131102
X-0210433Y0130315
Y0109449
X-0218307Y009252
X-0202559
X-0202067Y008691
X-0196654Y0074016
X-0210433Y0073228
X-0172638Y0072047
X-0171457Y0068124
X-0170685Y0161811
X-0171457Y0166535
X-0169193Y0172933
X-0171063Y0176377
X-0171457Y0182297
X-0172638Y0186221
X-0171097Y0210033
X-0170882Y0218898
X-0202756Y0206693
X-0202067Y0201083
X-0196654Y0188189
X-0210433Y0187402
Y0166535
X-0202067Y0143996
X-0218504Y0206693
X-0255906Y0211417
X-0275197
X-0275Y0154331
X-0255709
Y0097244
X-0275
X-0275197Y0268504
X-0255906
X-0218504Y0263779
X-0202756
X-0202264Y0258169
X-019685Y0245276
X-021063Y0244488
Y0223622
X-0171653
X-016939Y0230019
X-0171259Y0233464
X-0171653Y0239384
X-0172835Y0243307
X-0171097Y026712
X-0170882Y0275984
X-0171653Y0280709
X-016939Y0287106
X-0171259Y0290551
X-0171653Y0296471
X-0172835Y0300394
X-019685Y0302362
X-021063Y0301575
Y0280709
X-0202264Y0315256
X-0050787Y0268504
X-0031496
X0005906Y0263779
X0021654
X0022146Y0258169
X0027559Y0245276
X001378Y0244488
Y0223622
X0052756
X005502Y0230019
X005315Y0233464
X0052756Y0239384
X0051575Y0243307
X005315Y0267717
X0053527Y0275984
X0052756Y0280709
X005502Y0287106
X005315Y0290551
X0052756Y0296471
X0051575Y0300394
X0027559Y0302362
X001378Y0301575
Y0280709
X0022146Y0315256
X0169882Y0268504
X0189173
X0226575Y0263779
X0242323
X0242815Y0258169
X0248228Y0245276
X0234449Y0244488
Y0223622
X0273425
X0275689Y0230019
X0273819Y0233464
X0273425Y0239384
X0272244Y0243307
X027559Y0266732
X0274197Y0275984
X0273425Y0280709
X0275689Y0287106
X0273819Y0290551
X0273425Y0296471
X0272244Y0300394
X0248228Y0302362
X0234449Y0301575
Y0280709
X0242815Y0315256
T04
X0242126Y-0327953
X0261811
T05
X-0202346Y-0232598
Y-0224598
Y-0216598
Y-0208598
Y-0200598
Y-0192598
X-0192347Y-0196598
Y-0204598
Y-0220598
Y-0228598
Y-0236598
Y-0188598
T06
X0283937Y-0252953
X0293937
X0288937Y-0242953
X0278937
X0283937Y-0227953
X0293937
X0288937Y-0217953
X0278937
X0189724Y-0112736
Y-0102736
X0179724Y-0107736
Y-0117736
X-0030945Y-0112736
Y-0102736
X-0040945Y-0107736
Y-0117736
X-0255157Y-0112736
Y-0102736
X-0265158Y-0107736
Y-0117736
Y-006065
Y-005065
X-0255157Y-005565
Y-004565
Y0001437
Y0011437
X-0265158Y0006437
Y-0003563
Y0053523
X-0255157Y0058523
X-0040945Y0053523
X-0030945Y0058523
Y0011437
Y0001437
X-0040945Y0006437
Y-0003563
Y-005065
Y-006065
X-0030945Y-005565
Y-004565
X0179724Y-005065
Y-006065
X0189724Y-005565
Y-004565
Y0001437
Y0011437
X0179724Y0006437
Y-0003563
Y0053523
X0189724Y0058523
Y0068523
X0179724Y0063523
X0179724Y011061
Y012061
X0189724Y012561
Y011561
Y0172697
Y0182697
X0179724Y0177697
Y0167697
X-0030945Y0172697
Y0182697
X-0040945Y0177697
Y0167697
Y012061
Y011061
X-0030945Y011561
Y012561
Y0068523
X-0040945Y0063523
X-0255157Y0068523
X-0265158Y0063523
Y011061
Y012061
X-0255157Y011561
Y012561
Y0172697
Y0182697
X-0265158Y0177697
Y0167697
X-0265354Y0224783
Y0234783
X-0255354Y0229783
Y0239783
Y028687
Y029687
X-0265354Y029187
Y028187
X-0040945Y028187
Y029187
X-0030945Y028687
Y029687
Y0239783
Y0229783
X-0040945Y0234783
Y0224783
X0179724Y0224783
Y0234783
X0189724Y0239783
Y0229783
Y028687
Y029687
X0179724Y029187
Y028187
T07
X0211811Y-0118661
Y-0108661
Y-0098661
X-0008858Y-0098661
Y-0108661
Y-0118661
X-0233071Y-0118661
Y-0108661
Y-0098661
Y-0088661
Y-0061575
Y-0051575
Y-0041575
Y-0031575
X-0233071Y-0004488
Y0005512
Y0015512
Y0025512
Y0052598
Y0062598
X-0008858Y0062599
Y0052599
X-0008858Y0025512
Y0015512
Y0005512
Y-0004488
Y-0031575
Y-0041575
Y-0051575
Y-0061575
Y-0088661
X0211811Y-0088661
Y-0061575
Y-0051575
Y-0041575
Y-0031575
Y-0004488
Y0005512
Y0015512
Y0025512
Y0052599
Y0062599
Y0072598
Y0082599
X0211811Y0109685
Y0119685
Y0129685
Y0139685
X0211811Y0166772
Y0176772
Y0186772
Y0196772
X-0008858Y0196772
Y0186772
Y0176772
Y0166772
Y0139685
Y0129685
Y0119685
Y0109685
X-0008858Y0082599
Y0072598
X-0233071Y0072598
Y0082598
Y0109685
Y0119685
Y0129685
Y0139685
Y0166772
Y0176772
Y0186772
Y0196772
X-0233268Y0223858
Y0233858
Y0243858
Y0253858
Y0280945
Y0290945
Y0300945
Y0310945
X-0008858Y0310945
Y0300945
Y0290945
Y0280945
X-0008858Y0253858
Y0243858
Y0233858
Y0223858
X0211811Y0223858
Y0233858
Y0243858
Y0253858
X0211811Y0280945
Y0290945
Y0300945
Y0310945
T08
X-0243347Y-0242198
X-0253346
X-0263347
Y-0182998
X-0253346
T10
X-0228346Y-0247198
Y-0177998
T11
X-0110236Y-0334646
X0112205
X0271437Y-0277953
X0301437
X0334646Y-0245828
X0301437Y-0192953
X0271437
X0334646Y-011811
X0154724Y-0125236
Y-0095236
X0112205Y-011811
X-0065945Y-0125236
Y-0095236
X-0110236Y-011811
X-0290158Y-0125236
Y-0095236
X-0334646Y-011811
Y-0245828
X-0290158Y-006815
Y-003815
Y-0011063
Y0018937
Y0046023
X-0065945Y0046023
Y0018937
Y-0011063
Y-003815
Y-006815
X0154724Y-006815
Y-003815
Y-0011063
Y0018937
Y0046023
X0334646Y0098425
X0154724Y010311
X0154724Y0076023
X0154724Y013311
Y0160197
Y0190197
Y0217283
X0112205Y0098425
X-0065945Y010311
Y0076023
Y013311
Y0160197
Y0190197
Y0217283
X-0110236Y0098425
X-0290158Y010311
Y0076023
Y013311
Y0160197
Y0190197
X-0290354Y0217283
X-0334646Y0098425
X-0290354Y0247283
Y027437
Y030437
X-0334646Y0314961
X-0110236
X-0065945Y030437
Y027437
Y0247283
X0154724Y0247283
Y027437
Y030437
X0112205Y0314961
X0334646
T12
X-0228346Y-0231598
Y-0193598
M30
